<svg id="Groupe_1" data-name="Groupe 1" xmlns="http://www.w3.org/2000/svg" width="151.396" height="89.681"><defs><style>.cls-1{fill:#34a6df}.cls-2{fill:#35a8e0}.cls-3{fill:#0d5ba6}.cls-5{fill:#fff}.cls-6{fill:#bd1622}</style></defs><path id="Tracé_51" data-name="Tracé 51" class="cls-1" d="M139.131 228.471h-3.521V213.81h4.181a3.3 3.3 0 013.255 3.255 2.848 2.848 0 01-1.875 2.978 3.767 3.767 0 013.208 3.8c.042 3.79-3.526 4.628-5.248 4.628zm-.224-12.88h-1.085v3.774h1.085a1.887 1.887 0 000-3.774zm.383 5.538h-1.468v5.579h1.468a2.79 2.79 0 000-5.579z" transform="translate(-86.061 -163.164)"/><path id="Tracé_52" data-name="Tracé 52" class="cls-1" d="M182.8 228.438l-1.651-3.073a5.942 5.942 0 01-1.309.295v2.778h-2.24V213.73h2.212a5.419 5.419 0 015.532 5.738 5.619 5.619 0 01-2.394 5.013l2.571 3.957zm-2.935-12.738v7.932c1.923 0 3.167-1.651 3.185-3.91.023-2.194-1.222-4.022-3.185-4.022z" transform="translate(-103.288 -163.131)"/><path id="Tracé_53" data-name="Tracé 53" class="cls-2" d="M218.91 213.73h6.369v1.94h-4.11v5.986h4.11v1.97h-4.11v2.843h4.382v1.97h-6.64z" transform="translate(-120.236 -163.131)"/><path id="Tracé_54" data-name="Tracé 54" class="cls-2" d="M265.132 223.8a4.819 4.819 0 01-4.718 4.7 7.174 7.174 0 01-3.414-.88v-2.8a4.6 4.6 0 003.185 1.533 2.506 2.506 0 002.554-2.259c.23-1.492-.79-2.3-2.324-3-1.557-.7-3.049-1.787-3.049-4.022a3.691 3.691 0 013.7-3.68 9.192 9.192 0 012.6.383v2.713a2.991 2.991 0 00-2.377-1.085 1.576 1.576 0 00-1.669 1.6c0 1.4 2.005 2.052 2.005 2.052 2.086.857 3.531 2.172 3.507 4.745z" transform="translate(-135.863 -162.991)"/><path id="Tracé_55" data-name="Tracé 55" class="cls-2" d="M300.927 215.67v12.762h-2.235V215.67h-2.442v-1.94h7.112v1.94z" transform="translate(-151.966 -163.131)"/><path id="Tracé_56" data-name="Tracé 56" class="cls-3" d="M140.158 253.435a1.626 1.626 0 00-.719-.548 2.351 2.351 0 00-1.846.024 2.27 2.27 0 00-.767.543 2.338 2.338 0 00-.489.808 2.778 2.778 0 00-.177 1 3.23 3.23 0 00.165 1.044 2.349 2.349 0 00.478.808 2.079 2.079 0 00.743.525 2.448 2.448 0 00.973.189 2.157 2.157 0 001-.218 1.983 1.983 0 00.7-.584l.991.7a3.126 3.126 0 01-1.132.9 3.589 3.589 0 01-1.563.324 4.133 4.133 0 01-1.5-.271 3.379 3.379 0 01-1.174-.755 3.514 3.514 0 01-.773-1.162 3.952 3.952 0 01-.277-1.492 3.768 3.768 0 01.295-1.51 3.223 3.223 0 01.8-1.144 3.573 3.573 0 011.2-.731 4.25 4.25 0 011.5-.259 3.641 3.641 0 01.7.065 3.531 3.531 0 01.7.195 3.323 3.323 0 01.625.33 2.038 2.038 0 01.507.472z" transform="translate(-85.72 -178.68)"/><path id="Tracé_57" data-name="Tracé 57" class="cls-3" d="M146.99 251.92h4.61v1.085h-3.373v1.769h3.2v1.044h-3.2v1.97h3.556v1.1h-4.793z" transform="translate(-90.729 -178.799)"/><path id="Tracé_58" data-name="Tracé 58" class="cls-3" d="M157.17 251.92h1.639l3.238 5.219h.018v-5.219h1.244v6.971h-1.575l-3.308-5.384h-.018v5.384h-1.238z" transform="translate(-94.906 -178.799)"/><path id="Tracé_59" data-name="Tracé 59" class="cls-3" d="M171.085 253h-2.135v-1.09h5.508V253h-2.135v5.886h-1.244V253z" transform="translate(-99.739 -178.795)"/><path id="Tracé_60" data-name="Tracé 60" class="cls-3" d="M179.67 251.92h2.418a4.6 4.6 0 01.955.1 2.552 2.552 0 01.82.336 1.785 1.785 0 01.578.625 1.909 1.909 0 01.218.932 1.77 1.77 0 01-.43 1.238 2.161 2.161 0 01-1.168.643l1.864 3.09h-1.492l-1.616-2.955h-.9v2.955h-1.238v-6.964zm2.253 3a3.218 3.218 0 00.531-.041 1.373 1.373 0 00.478-.147.965.965 0 00.348-.307.929.929 0 00.136-.519.805.805 0 00-.124-.466.957.957 0 00-.324-.289 1.337 1.337 0 00-.448-.147 2.77 2.77 0 00-.484-.041h-1.126v1.958z" transform="translate(-104.137 -178.799)"/><path id="Tracé_61" data-name="Tracé 61" class="cls-3" d="M190.16 251.92h4.612v1.085H191.4v1.769h3.2v1.044h-3.2v1.97h3.556v1.1h-4.796z" transform="translate(-108.441 -178.799)"/><path id="Tracé_62" data-name="Tracé 62" class="cls-3" d="M204.51 251.92h1.238v2.813H209v-2.813h1.244v6.971H209V255.8h-3.255v3.09h-1.235z" transform="translate(-114.328 -178.799)"/><path id="Tracé_63" data-name="Tracé 63" class="cls-3" d="M216.27 255.255a3.869 3.869 0 01.283-1.51 3.337 3.337 0 01.778-1.144 3.553 3.553 0 011.179-.731 4.217 4.217 0 011.49-.26 4.317 4.317 0 011.51.259 3.348 3.348 0 011.191.731 3.271 3.271 0 01.784 1.144 3.89 3.89 0 01.283 1.51 3.8 3.8 0 01-.283 1.492 3.456 3.456 0 01-.784 1.162 3.508 3.508 0 01-1.191.755 4.165 4.165 0 01-1.51.271 4.116 4.116 0 01-1.492-.271 3.458 3.458 0 01-1.179-.755 3.529 3.529 0 01-.778-1.162 3.822 3.822 0 01-.281-1.491zm1.356 0a3.031 3.031 0 00.171 1.032 2.289 2.289 0 00.5.814 2.193 2.193 0 00.755.531 2.34 2.34 0 00.967.189 2.388 2.388 0 00.973-.189 2.24 2.24 0 00.761-.531 2.377 2.377 0 00.5-.814 2.871 2.871 0 00.177-1.032 2.8 2.8 0 00-.177-1 2.477 2.477 0 00-.484-.808 2.307 2.307 0 00-.755-.543 2.428 2.428 0 00-.985-.2 2.38 2.38 0 00-.979.2 2.225 2.225 0 00-.755.543 2.418 2.418 0 00-.484.808 2.657 2.657 0 00-.185 1z" transform="translate(-119.153 -178.672)"/><path id="Tracé_64" data-name="Tracé 64" class="cls-3" d="M234.205 253.227a1.618 1.618 0 00-.554-.431 1.717 1.717 0 00-.725-.171 1.757 1.757 0 00-.431.053 1.4 1.4 0 00-.4.165.92.92 0 00-.289.295.815.815 0 00-.112.436.8.8 0 00.1.407.827.827 0 00.271.283 2.13 2.13 0 00.419.206c.165.059.348.118.543.177.224.071.454.153.69.242a2.872 2.872 0 01.66.366 1.785 1.785 0 01.5.572 1.715 1.715 0 01.189.855 2.12 2.12 0 01-.206.979 1.993 1.993 0 01-.554.69 2.279 2.279 0 01-.808.413 3.494 3.494 0 01-.973.136 3.737 3.737 0 01-1.333-.254 2.548 2.548 0 01-1.062-.743l.89-.826a1.782 1.782 0 00.684.56 1.84 1.84 0 001.286.153 1.244 1.244 0 00.413-.183.92.92 0 00.295-.324.9.9 0 00.112-.478.778.778 0 00-.124-.454 1.208 1.208 0 00-.348-.318 2.308 2.308 0 00-.513-.23c-.195-.071-.4-.136-.619-.206s-.419-.147-.631-.236a2.273 2.273 0 01-.566-.366 1.85 1.85 0 01-.407-.554 1.881 1.881 0 01-.159-.82 1.737 1.737 0 01.224-.914 2 2 0 01.578-.637 2.823 2.823 0 01.82-.377 3.537 3.537 0 01.926-.124 3.179 3.179 0 011.079.189 2.649 2.649 0 01.949.56z" transform="translate(-124.839 -178.655)"/><path id="Tracé_65" data-name="Tracé 65" class="cls-3" d="M240.6 251.92h2.27a5.09 5.09 0 011.085.106 2.19 2.19 0 01.826.354 1.666 1.666 0 01.531.631 2.125 2.125 0 01.189.926 1.948 1.948 0 01-.218.973 1.687 1.687 0 01-.584.637 2.4 2.4 0 01-.861.348 4.969 4.969 0 01-1.044.112h-.955v2.884H240.6zm2.105 3.043a3.58 3.58 0 00.578-.047 1.745 1.745 0 00.5-.159.924.924 0 00.348-.307 1.088 1.088 0 000-1.008.937.937 0 00-.342-.3 1.461 1.461 0 00-.478-.142 5.6 5.6 0 00-.56-.035h-.9v2h.861z" transform="translate(-129.134 -178.799)"/><path id="Tracé_66" data-name="Tracé 66" class="cls-3" d="M250.77 251.92h1.238v6.971h-1.238z" transform="translate(-133.307 -178.799)"/><path id="Tracé_67" data-name="Tracé 67" class="cls-3" d="M256.385 253h-2.135v-1.09h5.508V253h-2.135v5.886h-1.244V253z" transform="translate(-134.735 -178.795)"/><path id="Tracé_68" data-name="Tracé 68" class="cls-3" d="M265.565 251.92h1.073l3 6.971h-1.415l-.649-1.6h-3.019l-.631 1.6h-1.384zm1.575 4.305l-1.073-2.837-1.091 2.837z" transform="translate(-138.136 -178.799)"/><path id="Tracé_69" data-name="Tracé 69" class="cls-3" d="M275.75 251.92h1.238v5.862h2.966v1.1h-4.2z" transform="translate(-143.555 -178.799)"/><path id="Tracé_70" data-name="Tracé 70" class="cls-3" d="M284.27 251.92h1.238v6.971h-1.238z" transform="translate(-147.051 -178.799)"/><path id="Tracé_71" data-name="Tracé 71" class="cls-3" d="M288.98 251.92h4.612v1.085h-3.373v1.769h3.2v1.044h-3.2v1.97h3.556v1.1h-4.795z" transform="translate(-148.983 -178.799)"/><path id="Tracé_72" data-name="Tracé 72" class="cls-3" d="M299.16 251.92h2.418a4.6 4.6 0 01.955.1 2.552 2.552 0 01.82.336 1.785 1.785 0 01.578.625 1.909 1.909 0 01.218.932 1.77 1.77 0 01-.431 1.238 2.182 2.182 0 01-1.168.643l1.864 3.09h-1.492l-1.616-2.955h-.9v2.955h-1.238v-6.964zm2.253 3a3.218 3.218 0 00.531-.041 1.373 1.373 0 00.478-.147.965.965 0 00.348-.307.929.929 0 00.136-.519.805.805 0 00-.124-.466.957.957 0 00-.324-.289 1.338 1.338 0 00-.448-.147 2.77 2.77 0 00-.484-.041H300.4v1.958z" transform="translate(-153.16 -178.799)"/><path id="Tracé_73" data-name="Tracé 73" class="cls-3" d="M167.45 272.281a2.839 2.839 0 01-.218 1.138 2.631 2.631 0 01-.59.861 2.691 2.691 0 01-.891.548 3.289 3.289 0 01-2.229 0 2.51 2.51 0 01-.89-.548 2.41 2.41 0 01-.59-.861 2.922 2.922 0 01-.212-1.138v-4.411h1.244v4.358a2.349 2.349 0 00.077.607 1.465 1.465 0 00.259.537 1.4 1.4 0 00.478.383 1.67 1.67 0 00.743.147 1.653 1.653 0 00.743-.147 1.319 1.319 0 00.484-.383 1.465 1.465 0 00.259-.537 2.349 2.349 0 00.077-.607v-4.358h1.244v4.411z" transform="translate(-96.818 -185.343)"/><path id="Tracé_74" data-name="Tracé 74" class="cls-3" d="M173.87 267.87h1.639l3.238 5.219h.018v-5.219h1.244v6.971h-1.575l-3.308-5.384h-.018v5.384h-1.238z" transform="translate(-101.757 -185.343)"/><path id="Tracé_75" data-name="Tracé 75" class="cls-3" d="M186.88 267.87h1.238v6.971h-1.238z" transform="translate(-107.095 -185.343)"/><path id="Tracé_76" data-name="Tracé 76" class="cls-3" d="M190.12 267.87h1.386l1.917 5.361h.041l1.94-5.361h1.339l-2.8 6.971h-1.073z" transform="translate(-108.424 -185.343)"/><path id="Tracé_77" data-name="Tracé 77" class="cls-3" d="M202.49 267.87h4.61v1.085h-3.373v1.769h3.2v1.044h-3.2v1.97h3.556v1.1h-4.793z" transform="translate(-113.499 -185.343)"/><path id="Tracé_78" data-name="Tracé 78" class="cls-3" d="M212.67 267.87h2.418a4.6 4.6 0 01.955.1 2.551 2.551 0 01.82.336 1.785 1.785 0 01.578.625 1.909 1.909 0 01.218.932 1.77 1.77 0 01-.431 1.238 2.16 2.16 0 01-1.168.643l1.864 3.09h-1.492l-1.616-2.955h-.9v2.955h-1.238v-6.964zm2.253 3a3.223 3.223 0 00.531-.041 1.373 1.373 0 00.478-.147.965.965 0 00.348-.307.929.929 0 00.136-.519.805.805 0 00-.124-.466.95.95 0 00-.324-.289 1.337 1.337 0 00-.448-.147 2.772 2.772 0 00-.484-.041h-1.126v1.958z" transform="translate(-117.676 -185.343)"/><path id="Tracé_79" data-name="Tracé 79" class="cls-3" d="M226.355 269.187a1.618 1.618 0 00-.554-.431 1.717 1.717 0 00-.725-.171 1.756 1.756 0 00-.431.053 1.4 1.4 0 00-.4.165.92.92 0 00-.289.295.815.815 0 00-.112.436.8.8 0 00.1.407.827.827 0 00.271.283 2.131 2.131 0 00.419.206c.165.059.348.118.543.177.224.071.454.153.69.242a2.871 2.871 0 01.661.366 1.785 1.785 0 01.5.572 1.715 1.715 0 01.189.855 2.12 2.12 0 01-.206.979 1.993 1.993 0 01-.554.69 2.279 2.279 0 01-.808.413 3.5 3.5 0 01-.973.136 3.737 3.737 0 01-1.333-.254 2.549 2.549 0 01-1.062-.743l.89-.826a1.782 1.782 0 00.684.56 1.84 1.84 0 001.286.153 1.244 1.244 0 00.413-.183.92.92 0 00.295-.324.9.9 0 00.112-.478.779.779 0 00-.124-.454 1.208 1.208 0 00-.348-.318 2.309 2.309 0 00-.513-.23c-.195-.071-.4-.136-.619-.206s-.419-.147-.631-.236a2.273 2.273 0 01-.566-.366 1.851 1.851 0 01-.407-.554 1.881 1.881 0 01-.159-.82 1.737 1.737 0 01.224-.914 2 2 0 01.578-.637 2.822 2.822 0 01.82-.377 3.534 3.534 0 01.926-.124 3.179 3.179 0 011.079.189 2.648 2.648 0 01.949.56z" transform="translate(-121.618 -185.203)"/><path id="Tracé_80" data-name="Tracé 80" class="cls-3" d="M232.74 267.87h1.238v6.971h-1.238z" transform="translate(-125.91 -185.343)"/><path id="Tracé_81" data-name="Tracé 81" class="cls-3" d="M238.355 268.955h-2.135v-1.085h5.508v1.085h-2.135v5.886h-1.244v-5.886z" transform="translate(-127.338 -185.343)"/><path id="Tracé_82" data-name="Tracé 82" class="cls-3" d="M247.535 267.87h1.073l3 6.971H250.2l-.649-1.6h-3.019l-.631 1.6h-1.391zm1.575 4.311l-1.073-2.837-1.091 2.837z" transform="translate(-130.739 -185.343)"/><path id="Tracé_83" data-name="Tracé 83" class="cls-3" d="M257.71 267.87h1.238v6.971h-1.238z" transform="translate(-136.154 -185.343)"/><path id="Tracé_84" data-name="Tracé 84" class="cls-3" d="M262.42 267.87h2.418a4.6 4.6 0 01.955.1 2.551 2.551 0 01.82.336 1.785 1.785 0 01.578.625 1.909 1.909 0 01.218.932 1.77 1.77 0 01-.431 1.238 2.182 2.182 0 01-1.168.643l1.864 3.09h-1.492l-1.616-2.955h-.9v2.955h-1.238v-6.964zm2.253 3a3.223 3.223 0 00.531-.041 1.374 1.374 0 00.478-.147.965.965 0 00.348-.307.929.929 0 00.136-.519.805.805 0 00-.124-.466.95.95 0 00-.324-.289 1.337 1.337 0 00-.448-.147 2.772 2.772 0 00-.484-.041h-1.126v1.958z" transform="translate(-138.086 -185.343)"/><path id="Tracé_85" data-name="Tracé 85" class="cls-3" d="M272.92 267.87h4.612v1.085h-3.373v1.769h3.2v1.044h-3.2v1.97h3.556v1.1h-4.795z" transform="translate(-142.394 -185.343)"/><path id="Tracé_86" data-name="Tracé 86" class="cls-3" d="M153.8 134.558a15.806 15.806 0 018.8 2.937v-7.478a24.013 24.013 0 00-8.734-1.887c-9.9 0-17.657 5.048-21.431 12.644l14.891-4.883a16.53 16.53 0 016.474-1.333z" transform="translate(-84.76 -128.012)"/><path id="Tracé_87" data-name="Tracé 87" class="cls-3" d="M139.708 183.212l-9.778-3.332a23.142 23.142 0 0021.87 16.22c4.051 0 7.967-.489 10.692-1.952V186.6a16.419 16.419 0 01-22.781-3.391z" transform="translate(-83.73 -149.243)"/><path id="Tracé_88" data-name="Tracé 88" class="cls-3" d="M281.695 129.2v33.049c0 .271-.018.59-.018.59a6.033 6.033 0 01-5.992 5.844 5.827 5.827 0 01-5.838-5.809 4.576 4.576 0 01-.029-.554V129.2H262.9v33.467a12.822 12.822 0 0025.642 0V129.2z" transform="translate(-138.283 -128.451)"/><path id="Tracé_89" data-name="Tracé 89" class="cls-3" d="M204.982 129.31v24.456H203.5v-.006h-9.7v-24.45h-6.988v24.45h-21.8v6.151h21.8v14.814h6.988v-14.808h11.246v14.808h6.918V129.31z" transform="translate(-98.122 -128.496)"/><path id="Tracé_90" data-name="Tracé 90" d="M71.765 149.721l14.335-4.842a17.249 17.249 0 00-34.494.071l14.124 4.777-14.14 4.806V199.5a17.268 17.268 0 0034.535 0v-44.914z" transform="translate(-51.59 -127.93)" fill="#0d5ca5"/><path id="Ligne_2" data-name="Ligne 2" class="cls-5" transform="translate(12.455 48.435)" d="M9.135 0H0"/><path id="Tracé_91" data-name="Tracé 91" class="cls-5" d="M81.653 160.016H75.26l.006-.006-.006.006v5.591h6.4z" transform="translate(-61.301 -141.091)"/><path id="Tracé_92" data-name="Tracé 92" class="cls-6" d="M81.729 177.4l-.407-7.9h-6.417l-.5 7.9h7.313z" transform="translate(-60.952 -144.985)"/><path id="Tracé_93" data-name="Tracé 93" class="cls-5" d="M81.521 210.06h-9.135l-.466 7.413h9.98" transform="translate(-59.931 -161.625)"/><path id="Tracé_95" data-name="Tracé 95" class="cls-5" d="M73.74 189.275h8.038l-.33-6.375h-7.313z" transform="translate(-60.677 -150.482)"/><path id="Tracé_96" data-name="Tracé 96" class="cls-6" d="M72.71 203.352h9.135l-.2-3.975-.289-5.667h-8.039z" transform="translate(-60.255 -154.917)"/><path id="Tracé_97" data-name="Tracé 97" class="cls-6" d="M81.653 157.8h.012a3.2 3.2 0 00-6.4-.006v.006z" transform="translate(-61.301 -138.88)"/><path id="Tracé_98" data-name="Tracé 98" class="cls-6" d="M80.791 222.63h-9.979l-1.592 21.826 12.449-7.336z" transform="translate(-58.823 -166.782)"/></svg>